<svg xmlns="http://www.w3.org/2000/svg" width="512" height="512" viewBox="0 0 512 512">
  <rect width="512" height="512" rx="100" fill="#007aff"/>
  <rect x="120" y="100" width="272" height="312" rx="20" fill="#fff"/>
  <rect x="140" y="130" width="120" height="12" rx="6" fill="#007aff"/>
  <rect x="140" y="160" width="200" height="8" rx="4" fill="#e5e5ea"/>
  <rect x="140" y="185" width="180" height="8" rx="4" fill="#e5e5ea"/>
  <rect x="140" y="210" width="160" height="8" rx="4" fill="#e5e5ea"/>
  <rect x="140" y="235" width="200" height="8" rx="4" fill="#e5e5ea"/>
  <rect x="140" y="270" width="100" height="60" rx="12" fill="#34c759"/>
  <circle cx="170" cy="300" r="15" fill="#fff"/>
  <path d="M162 300 l6 6 l12 -12" stroke="#34c759" stroke-width="3" fill="none" stroke-linecap="round"/>
  <rect x="260" y="270" width="100" height="60" rx="12" fill="#ffcc00"/>
  <circle cx="290" cy="300" r="15" fill="#fff"/>
  <rect x="310" y="294" width="20" height="12" rx="6" fill="#ffcc00"/>
  <rect x="140" y="355" width="200" height="8" rx="4" fill="#e5e5ea"/>
  <rect x="140" y="375" width="140" height="8" rx="4" fill="#e5e5ea"/>
</svg>